<svg xmlns="http://www.w3.org/2000/svg" version="1.1" xmlns:xlink="http://www.w3.org/1999/xlink" width="1500" height="1500" viewBox="0 0 1500 1500"><rect width="1500" height="1500" x="0" y="0" id="background" stroke="transparent" fill="#404040"></rect><svg xml:space="preserve" width="1000" height="1000" data-version="2" data-id="lg_IAnIHppMWT1DTD9YpH" viewBox="0 0 554 95" x="250" y="250"><rect width="100%" height="100%" fill="transparent"></rect><path fill="#ffffff" d="M18.855 87.3q0 5.47-6.84 5.47-6.72 0-6.72-5.47V6.48q0-5.48 6.72-5.48 6.84 0 6.84 5.48Z"></path><rect width="13.56" height="91.77" x="-6.78" y="-45.88" fill="none" rx="0" ry="0" transform="translate(12.57 47.38)"></rect><path fill="#ffffff" d="M87.605 6.48q0-5.48 6.72-5.48 6.73 0 6.73 5.48v78.66q0 3.99-4.22 5.81h.11q-1.82.8-3.87 1.25-2.05.46-3.99.46-1.48 0-3.08-.28-1.6-.29-3.02-.92-1.43-.62-2.62-1.71-1.2-1.08-1.88-2.68L53.745 25.4l-3.08.34V87.3q0 5.47-6.84 5.47-6.73 0-6.73-5.47V8.76q0-4.68 4.11-6.27Q44.965 1 49.185 1q2.96 0 5.98 1.2 3.02 1.2 4.62 4.5l24.62 61.79 3.2-.34Z"></path><rect width="63.96" height="91.77" x="-31.98" y="-45.88" fill="none" rx="0" ry="0" transform="translate(69.58 47.38)"></rect><path fill="#ffffff" d="M168.545 6.48q0-5.48 6.72-5.48 6.73 0 6.73 5.48v78.66q0 3.99-4.22 5.81h.11q-1.82.8-3.87 1.25-2.05.46-3.99.46-1.48 0-3.08-.28-1.6-.29-3.02-.92-1.43-.62-2.62-1.71-1.2-1.08-1.88-2.68l-24.74-61.67-3.08.34V87.3q0 5.47-6.84 5.47-6.73 0-6.73-5.47V8.76q0-4.68 4.11-6.27 3.76-1.49 7.98-1.49 2.96 0 5.98 1.2 3.02 1.2 4.62 4.5l24.62 61.79 3.2-.34Z"></path><rect width="63.96" height="91.77" x="-31.98" y="-45.88" fill="none" rx="0" ry="0" transform="translate(150.51 47.38)"></rect><path fill="#ffffff" d="M242.075 1.57q2.96 0 6.15 1.26 3.19 1.25 6.16 3.19h-.12q2.97 2.17 4.56 5.64 1.6 3.48 1.6 8.04v54.15q0 9.23-6.16 13.79-2.96 2.17-6.09 3.37-3.14 1.19-6.1 1.19h-24.86q-2.96 0-6.09-1.19-3.14-1.2-6.1-3.37-2.97-2.28-4.56-5.64-1.6-3.36-1.6-8.15V19.7q0-4.56 1.6-8.04 1.59-3.47 4.56-5.64h-.12q2.97-1.94 6.16-3.19 3.19-1.26 6.15-1.26Zm-2.85 79.12q4.21 0 5.92-2.39 1.71-2.4 1.71-5.36V20.73q0-2.85-1.71-5.25-1.71-2.39-5.92-2.39h-19.16q-4.21 0-5.92 2.39-1.71 2.4-1.71 5.25v52.21q0 2.96 1.71 5.36 1.71 2.39 5.92 2.39Z"></path><rect width="61.56" height="90.63" x="-30.78" y="-45.31" fill="none" rx="0" ry="0" transform="translate(230.15 47.38)"></rect><path fill="#ffffff" d="M308.075 87.53q0 5.47-6.84 5.47-6.72 0-6.72-5.47V13.09h-19.95q-4.11 0-4.34-5.82 0-5.7 4.34-5.7h53.46q4.33 0 4.11 5.7 0 5.82-4.11 5.82h-19.95Z"></path><rect width="61.98" height="91.43" x="-30.99" y="-45.72" fill="none" rx="0" ry="0" transform="translate(301.72 47.78)"></rect><path fill="#ffffff" d="M349.575 92.2q-4.22 0-5.7-2.16-1.48-2.17-1.48-4.79V8.41q0-2.62 1.48-4.73 1.48-2.11 5.7-2.11h39.67q4.22 0 4.45 5.7.22 5.82-4.45 5.82h-33.4v67.6h35.45q4.22 0 4.33 5.59.23 5.92-4.33 5.92Zm35.45-47.19q0 3.99-2.79 6.72-2.79 2.74-6.78 2.74-3.88 0-6.62-2.74-2.73-2.73-2.73-6.72 0-3.99 2.73-6.73 2.74-2.73 6.62-2.73 3.99 0 6.78 2.73 2.79 2.74 2.79 6.73"></path><rect width="53.31" height="90.63" x="-26.65" y="-45.31" fill="none" rx="0" ry="0" transform="translate(369.55 47.38)"></rect><path fill="#ffffff" d="M469.385 73.85q0 9.23-6.15 13.79-2.97 2.17-6.1 3.37-3.14 1.19-6.1 1.19h-24.85q-2.97 0-6.1-1.19-3.14-1.2-6.1-3.37-2.97-2.28-4.56-5.64-1.6-3.36-1.6-8.15V19.7q0-4.56 1.6-8.04 1.59-3.47 4.56-5.64h-.12q2.97-1.94 6.16-3.19 3.19-1.26 6.16-1.26h24.85q2.96 0 6.15 1.26 3.2 1.25 6.16 3.19h-.11q2.96 2.17 4.56 5.64 1.59 3.48 1.59 8.04v7.87q0 5.47-6.84 5.47-6.72 0-6.72-5.47v-6.84q0-2.85-1.71-5.25-1.71-2.39-5.93-2.39h-19.15q-4.22 0-5.93 2.39-1.71 2.4-1.71 5.25v52.21q0 2.96 1.71 5.36 1.71 2.39 5.93 2.39h19.15q4.22 0 5.93-2.39 1.71-2.4 1.71-5.36v-6.61q0-5.36 6.72-5.36 6.84 0 6.84 5.36Z"></path><rect width="61.56" height="90.63" x="-30.78" y="-45.31" fill="none" rx="0" ry="0" transform="translate(439.1 47.38)"></rect><path fill="#ffffff" d="M534.135 6.48q0-5.48 6.73-5.48 6.84 0 6.84 5.48V87.3q0 5.47-6.84 5.47-6.73 0-6.73-5.47Zm-34.65 80.82q0 5.47-6.84 5.47-6.73 0-6.73-5.47V6.48q0-5.48 6.73-5.48 6.84 0 6.84 5.48Zm26.67-42.29q0 3.99-2.73 6.72-2.74 2.74-6.73 2.74-3.87 0-6.61-2.74-2.74-2.73-2.74-6.72 0-3.99 2.74-6.73 2.74-2.73 6.61-2.73 3.99 0 6.73 2.73 2.73 2.74 2.73 6.73"></path><rect width="61.79" height="91.77" x="-30.89" y="-45.88" fill="none" rx="0" ry="0" transform="translate(517.31 47.38)"></rect></svg></svg>